<svg xmlns="http://www.w3.org/2000/svg" width="1200" height="630" viewBox="0 0 1200 630" role="img" aria-label="DevKit">
  <defs>
    <radialGradient id="glow" cx="50%" cy="38%" r="58%">
      <stop offset="0%" stop-color="#3b6cff" stop-opacity="0.22"/>
      <stop offset="100%" stop-color="#141418" stop-opacity="0"/>
    </radialGradient>
  </defs>

  <rect width="1200" height="630" fill="#141418"/>
  <rect width="1200" height="630" fill="url(#glow)"/>

  <rect x="536" y="118" width="128" height="128" rx="28" fill="#1a1a1f" stroke="#2d2d36" stroke-width="2"/>
  <g transform="translate(560 142)" fill="none" stroke="#d4d4d4" stroke-width="2.2" stroke-linecap="round" stroke-linejoin="round">
    <g transform="scale(3.333)">
      <path d="M14.7 6.3a1 1 0 0 0 0 1.4l1.6 1.6a1 1 0 0 0 1.4 0l3.77-3.77a6 6 0 0 1-7.94 7.94l-6.91 6.91a2.12 2.12 0 0 1-3-3l6.91-6.91a6 6 0 0 1 7.94-7.94l-3.76 3.76z"/>
    </g>
  </g>

  <text x="600" y="332" text-anchor="middle" font-family="Inter, Segoe UI, Arial, sans-serif" font-weight="700" font-size="72" fill="#f4f4f5">DevKit</text>
  <text x="600" y="386" text-anchor="middle" font-family="Inter, Segoe UI, Arial, sans-serif" font-weight="500" font-size="28" fill="#a1a1aa">Free online developer tools</text>

  <g font-family="Inter, Segoe UI, Arial, sans-serif" font-weight="600" font-size="18" fill="#d4d4d8">
    <rect x="248" y="432" width="112" height="40" rx="20" fill="#1f1f26" stroke="#2d2d36"/>
    <text x="304" y="458" text-anchor="middle">JSON</text>
    <rect x="372" y="432" width="96" height="40" rx="20" fill="#1f1f26" stroke="#2d2d36"/>
    <text x="420" y="458" text-anchor="middle">SQL</text>
    <rect x="480" y="432" width="132" height="40" rx="20" fill="#1f1f26" stroke="#2d2d36"/>
    <text x="546" y="458" text-anchor="middle">Base64</text>
    <rect x="624" y="432" width="112" height="40" rx="20" fill="#1f1f26" stroke="#2d2d36"/>
    <text x="680" y="458" text-anchor="middle">GUID</text>
    <rect x="748" y="432" width="96" height="40" rx="20" fill="#1f1f26" stroke="#2d2d36"/>
    <text x="796" y="458" text-anchor="middle">Diff</text>
    <rect x="856" y="432" width="96" height="40" rx="20" fill="#1f1f26" stroke="#2d2d36"/>
    <text x="904" y="458" text-anchor="middle">Text</text>
  </g>

  <rect x="456" y="508" width="196" height="32" rx="8" fill="#22c55e"/>
  <text x="554" y="530" text-anchor="middle" font-family="Inter, Segoe UI, Arial, sans-serif" font-weight="700" font-size="14" fill="#052e16">100% Client-Side</text>
</svg>
